<svg height="511pt" viewBox="0 -53 511.99979 511" width="511pt" xmlns="http://www.w3.org/2000/svg"><path d="m495.78125 364.027344-87.132812-52.625-12.453126-7.933594-17.148437 30.839844 10.964844 7.90625 87.199219 52.675781c8.515624 5.121094 19.582031 2.371094 24.714843-6.152344 1.75-2.902343 2.582031-6.105469 2.582031-9.265625-.003906-6.101562-3.113281-12.0625-8.726562-15.445312zm0 0" fill="#2f6999"/><path d="m487.855469 378.582031-87.203125-52.675781-10.964844-7.902344 7.671875-13.792968-1.164063-.738282-17.148437 30.839844 10.964844 7.902344 87.199219 52.675781c8.515624 5.125 19.582031 2.371094 24.714843-6.152344 1.730469-2.871093 2.558594-6.039062 2.578125-9.167969-5.199218 2.328126-11.40625 2.167969-16.648437-.988281zm0 0" fill="#26638c"/><path d="m402.222656 269.628906c0 53.890625-43.683594 97.578125-97.574218 97.578125-53.890626 0-97.574219-43.6875-97.574219-97.578125 0-53.886718 43.683593-97.574218 97.574219-97.574218 53.890624 0 97.574218 43.6875 97.574218 97.574218zm0 0" fill="#1adffd"/><path d="m356.421875 334.191406c-53.882813 0-97.574219-43.691406-97.574219-97.578125 0-23.363281 8.21875-44.808593 21.914063-61.609375-42.339844 10.65625-73.6875 48.984375-73.6875 94.625 0 53.886719 43.6875 97.578125 97.574219 97.578125 30.519531 0 57.765624-14.019531 75.660156-35.96875-7.644532 1.925781-15.644532 2.953125-23.886719 2.953125zm0 0" fill="#34bfea"/><path d="m43.265625 263.628906h351.179687c4.003907 0 7.25-3.246094 7.25-7.25v-188.847656h-365.679687v188.847656c0 4.003906 3.246094 7.25 7.25 7.25zm0 0" fill="#fc992d"/><path d="m238.882812 247.136719c-99.191406 0-179.605468-80.410157-179.605468-179.605469h-23.261719v188.847656c0 4.003906 3.246094 7.25 7.25 7.25h351.179687c4.003907 0 7.25-3.246094 7.25-7.25v-9.242187zm0 0" fill="#ef861d"/><path d="m248.609375 189.59375-23.316406 24.703125-28.046875 23.316406h-117.9375c-3.742188 0-6.773438-3.03125-6.773438-6.769531v-34.480469c0-3.738281 3.03125-6.769531 6.773438-6.769531zm0 0" fill="#ffe8c2"/><path d="m117.578125 226.109375c-12.964844 0-23.476563-10.511719-23.476563-23.476563v-13.039062h-14.792968c-3.742188 0-6.773438 3.03125-6.773438 6.769531v34.480469c0 3.738281 3.03125 6.769531 6.773438 6.769531h117.9375l13.839844-11.503906zm0 0" fill="#f2d9b6"/><path d="m270.609375 263.628906h123.835937c4.003907 0 7.25-3.246094 7.25-7.25v-188.847656h-131.085937zm0 0" fill="#ef861d"/><path d="m304.648438 157.578125c-61.890626 0-112.054688 50.164063-112.054688 112.050781 0 61.890625 50.164062 112.054688 112.054688 112.054688 61.890624 0 112.054687-50.164063 112.054687-112.054688 0-61.886718-50.164063-112.050781-112.054687-112.050781zm0 197.09375c-46.964844 0-85.042969-38.078125-85.042969-85.042969 0-46.960937 38.078125-85.039062 85.042969-85.039062 46.960937 0 85.039062 38.078125 85.039062 85.039062 0 46.964844-38.078125 85.042969-85.039062 85.042969zm0 0" fill="#8effa4"/><path d="m270.632812 67.03125-28.808593 57.140625c-.742188 1.464844-2.242188 2.390625-3.886719 2.390625h-223.582031c-3.1875 0-5.292969-3.316406-3.933594-6.203125l25.09375-53.328125zm0 0" fill="#ef861d"/><path d="m428.53125 14.308594-26.835938 53.222656h-131.0625l28.808594-57.136719c.738282-1.464843 2.238282-2.390625 3.882813-2.390625h121.320312c3.242188 0 5.34375 3.414063 3.886719 6.304688zm0 0" fill="#fc992d"/><path d="m360.675781 214.882812v49.746094h-50.023437v-49.835937c0-3.992188 4.390625-6.402344 7.761718-4.269531l17.488282 11.085937 16.980468-10.96875c3.359376-2.179687 7.792969.242187 7.792969 4.242187zm0 0" fill="#fec12c"/><path d="m304.648438 177.085938c-12.960938 0-25.308594 2.683593-36.519532 7.515624-.386718.136719-.761718.296876-1.117187.488282-32.324219 14.449218-54.910157 46.90625-54.910157 84.539062 0 51.03125 41.515626 92.546875 92.546876 92.546875 8.550781 0 17.054687-1.183593 25.273437-3.519531 3.984375-1.132812 6.300781-5.28125 5.167969-9.269531-1.132813-3.988281-5.285156-6.304688-9.269532-5.167969-6.882812 1.957031-14.007812 2.949219-21.171874 2.949219-41.914063 0-76.148438-33.4375-77.476563-75.035157h154.96875c-.777344 23.847657-12.644531 46.253907-32.089844 60.332032-3.355469 2.429687-4.105469 7.121094-1.675781 10.480468 2.429688 3.355469 7.121094 4.105469 10.476562 1.675782 24.007813-17.378906 38.339844-45.414063 38.339844-74.992188 0-51.027344-41.515625-92.542968-92.542968-92.542968zm76.515624 80.039062h-12.984374v-31.863281c6.539062 9.332031 11.078124 20.160156 12.984374 31.863281zm-33.5625-52.007812-11.738281 7.582031-13.433593-8.515625c-3.867188-2.453125-8.761719-2.605469-12.777344-.398438-4.011719 2.207032-6.503906 6.421875-6.503906 11.003906v42.335938h-25.035157v-60.351562c8.28125-3.027344 17.21875-4.679688 26.535157-4.679688 15.875 0 30.644531 4.800781 42.953124 13.023438zm-84.496093-.90625v52.914062h-34.972657c3.617188-22.210938 16.707032-41.273438 34.972657-52.914062zm55.050781 52.914062v-37.882812l13.730469 8.703124c2.472656 1.566407 5.628906 1.554688 8.089843-.035156l13.195313-8.527344v37.742188zm0 0"/><path d="m499.65625 357.605469-81.828125-49.421875c4.132813-12.101563 6.378906-25.070313 6.378906-38.550782 0-21.394531-5.65625-41.496093-15.539062-58.886718.015625-.214844.03125-.425782.03125-.644532v-139.789062l29.710937-58.929688c1.171875-2.328124 1.054688-5.09375-.3125-7.3125-1.363281-2.21875-3.785156-3.570312-6.390625-3.570312h-131.0625c-2.832031 0-5.425781 1.59375-6.699219 4.125l-27.683593 54.902344h-230.746094c-2.90625 0-5.550781 1.679687-6.789063 4.308594l-28.011718 59.53125c-1.09375 2.324218-.921875 5.046874.453125 7.214843 1.378906 2.167969 3.765625 3.484375 6.335937 3.484375h21.011719v122.976563c0 8.320312 6.769531 15.089843 15.089844 15.089843h141.515625c1.339844 64.773438 54.4375 117.054688 119.527344 117.054688 34.117187 0 64.941406-14.367188 86.742187-37.363281l81.949219 49.492187c4.023437 2.421875 8.53125 3.664063 13.109375 3.664063 2.066406 0 4.144531-.253907 6.199219-.765625 6.613281-1.644532 12.191406-5.765625 15.703124-11.605469 7.253907-12.050781 3.347657-27.757813-8.695312-35.003906zm-195.007812-207.53125c-9.117188 0-18 1.027343-26.535157 2.972656v-78.011719h115.578125v114.902344c-21.90625-24.449219-53.707031-39.863281-89.042968-39.863281zm.617187-134.566407h114.257813l-22.449219 44.519532h-114.257813zm-261.746094 241.535157v-122.976563h131.566407c4.144531 0 7.503906-3.359375 7.503906-7.503906s-3.359375-7.503906-7.503906-7.503906h-155.757813l20.949219-44.523438h218.167968l-22.449218 44.523438h-30.898438c-4.140625 0-7.5 3.359375-7.5 7.503906s3.359375 7.503906 7.5 7.503906h35.519532c2.832031 0 5.425781-1.597656 6.699218-4.125l15.789063-31.316406v58.894531c-14.882813 5.535157-28.371094 13.953125-39.792969 24.566407h-144.003906c-7.875 0-14.277344 6.40625-14.277344 14.277343v34.476563c0 7.875 6.402344 14.277344 14.277344 14.277344h108.3125c-.824219 3.9375-1.453125 7.941406-1.878906 12.007812h-142.140626c-.042968 0-.082031-.039062-.082031-.082031zm148.289063-26.929688h-111.769532v-33.019531h129.636719c-7.582031 9.90625-13.652343 21.027344-17.867187 33.019531zm112.839844 144.066407c-57.652344 0-104.550782-46.898438-104.550782-104.550782 0-57.648437 46.898438-104.550781 104.550782-104.550781 57.648437 0 104.550781 46.902344 104.550781 104.550781 0 57.652344-46.902344 104.550782-104.550781 104.550782zm190.84375 10.691406c-1.445313 2.40625-3.742188 4.105468-6.464844 4.78125-2.722656.675781-5.546875.25-7.941406-1.191406l-79.96875-48.292969c4.132812-5.636719 7.785156-11.648438 10.890624-17.96875l79.902344 48.253906c4.964844 2.988281 6.570313 9.457031 3.582032 14.417969zm0 0"/></svg>